<?xml version="1.0" encoding="UTF-8" standalone="no"?>
<svg
   width="738"
   height="119"
   viewBox="0 0 738 119"
   fill="none"
   version="1.1"
   id="svg1544"
   sodipodi:docname="docs_logo_dark.svg"
   inkscape:version="1.2.2 (b0a8486541, 2022-12-01)"
   xmlns:inkscape="http://www.inkscape.org/namespaces/inkscape"
   xmlns:sodipodi="http://sodipodi.sourceforge.net/DTD/sodipodi-0.dtd"
   xmlns="http://www.w3.org/2000/svg"
   xmlns:svg="http://www.w3.org/2000/svg">
  <sodipodi:namedview
     id="namedview1546"
     pagecolor="#ffffff"
     bordercolor="#000000"
     borderopacity="0.25"
     inkscape:showpageshadow="2"
     inkscape:pageopacity="0.0"
     inkscape:pagecheckerboard="0"
     inkscape:deskcolor="#d1d1d1"
     showgrid="false"
     inkscape:zoom="1.7913279"
     inkscape:cx="252.88502"
     inkscape:cy="60.011346"
     inkscape:window-width="1920"
     inkscape:window-height="1011"
     inkscape:window-x="1920"
     inkscape:window-y="0"
     inkscape:window-maximized="1"
     inkscape:current-layer="g1529" />
  <g
     clip-path="url(#clip0_398_48)"
     id="g1529">
    <path
       d="M196.547 112.837V41.3259H173.542V29.6884H232.359V41.3496H209.354V112.837H196.547Z"
       fill="white"
       id="path1515" />
    <path
       d="M260.107 114.262C254.249 114.262 249.055 113.051 244.502 110.628C239.948 108.23 236.367 104.738 233.758 100.226C231.149 95.7134 229.845 90.3696 229.845 84.1946V82.4134C229.845 76.2384 231.149 70.9184 233.758 66.4534C236.391 61.9884 239.948 58.4971 244.502 56.0509C249.055 53.6046 254.249 52.3696 260.107 52.3696C265.965 52.3696 271.183 53.6046 275.76 56.0509C280.337 58.4971 283.942 61.9646 286.575 66.4534C289.207 70.9421 290.488 76.2384 290.488 82.4134V84.1946C290.488 90.3696 289.184 95.7134 286.575 100.226C283.942 104.738 280.385 108.206 275.76 110.628C271.183 113.027 265.965 114.262 260.107 114.262ZM260.107 103.313C265.467 103.313 269.855 101.603 273.222 98.1359C276.59 94.6921 278.274 89.9184 278.274 83.8384V82.7696C278.274 76.6896 276.614 71.9159 273.294 68.4721C269.949 65.0046 265.586 63.2946 260.131 63.2946C254.676 63.2946 250.502 65.0046 247.134 68.4721C243.766 71.9159 242.082 76.6896 242.082 82.7696V83.8384C242.082 89.9421 243.766 94.6921 247.134 98.1359C250.502 101.58 254.818 103.313 260.131 103.313H260.107Z"
       fill="white"
       id="path1517" />
    <path
       d="M330.877 114.262C325.019 114.262 319.825 113.051 315.272 110.628C310.718 108.23 307.137 104.738 304.528 100.226C301.919 95.7134 300.615 90.3696 300.615 84.1946V82.4134C300.615 76.2384 301.919 70.9184 304.528 66.4534C307.161 61.9884 310.718 58.4971 315.272 56.0509C319.825 53.6046 325.019 52.3696 330.877 52.3696C336.735 52.3696 341.953 53.6046 346.53 56.0509C351.108 58.4971 354.712 61.9646 357.345 66.4534C359.978 70.9421 361.258 76.2384 361.258 82.4134V84.1946C361.258 90.3696 359.954 95.7134 357.345 100.226C354.712 104.738 351.155 108.206 346.53 110.628C341.953 113.027 336.735 114.262 330.877 114.262ZM330.877 103.313C336.237 103.313 340.625 101.603 343.993 98.1359C347.36 94.6921 349.044 89.9184 349.044 83.8384V82.7696C349.044 76.6896 347.384 71.9159 344.064 68.4721C340.72 65.0046 336.356 63.2946 330.901 63.2946C325.446 63.2946 321.272 65.0046 317.904 68.4721C314.537 71.9159 312.853 76.6896 312.853 82.7696V83.8384C312.853 89.9421 314.537 94.6921 317.904 98.1359C321.272 101.58 325.589 103.313 330.901 103.313H330.877Z"
       fill="white"
       id="path1519" />
    <path
       d="M372.642 113.098V29.7122H384.88V113.098H372.642Z"
       fill="white"
       id="path1521" />
    <path
       d="M424.558 114.5C416.257 114.5 409.664 112.196 404.731 107.565C399.821 102.933 397.379 96.3784 397.379 87.9234V80.7746H410.186V87.9234C410.186 92.3646 411.395 95.9034 413.814 98.5396C416.21 101.2 419.72 102.506 424.297 102.506C428.874 102.506 432.005 101.2 434.139 98.5871C436.274 95.9984 437.341 92.4121 437.341 87.8996V41.3259H419.791V29.6884H459.421V41.3496H450.148V87.8996C450.148 96.5446 447.919 103.1 443.436 107.66C438.978 112.22 432.645 114.476 424.51 114.476L424.558 114.5Z"
       fill="white"
       id="path1523" />
    <path
       d="M491.699 114.5C485.77 114.5 480.576 113.241 476.165 110.747C471.73 108.253 468.267 104.738 465.777 100.178C463.287 95.6184 462.03 90.3459 462.03 84.3371V82.9121C462.03 76.8084 463.263 71.4884 465.706 66.9521C468.149 62.3921 471.588 58.8771 475.975 56.3834C480.363 53.8896 485.462 52.6309 491.225 52.6309C496.988 52.6309 501.755 53.8896 506.001 56.3834C510.246 58.8771 513.519 62.3446 515.89 66.7859C518.262 71.2271 519.448 76.4046 519.448 82.3421V86.9734H474.481C474.624 92.1271 476.379 96.2121 479.651 99.2521C482.924 102.292 487.027 103.812 491.937 103.812C496.846 103.812 499.977 102.791 502.324 100.725C504.649 98.6584 506.475 96.2834 507.708 93.6234L517.811 98.8484C516.72 101.057 515.084 103.408 512.997 105.855C510.886 108.301 508.135 110.367 504.744 112.03C501.328 113.692 496.988 114.523 491.676 114.523H491.699V114.5ZM474.624 77.5684H507.02C506.712 73.1271 505.099 69.6596 502.277 67.1659C499.431 64.6721 495.708 63.4134 491.13 63.4134C486.553 63.4134 482.806 64.6721 479.912 67.1659C477.019 69.6596 475.264 73.1271 474.647 77.5684H474.624Z"
       fill="white"
       id="path1525" />
    <path
       d="M547.173 113.098C543.615 113.098 540.769 112.03 538.706 109.892C536.595 107.755 535.575 104.905 535.575 101.342V62.9621H525.946V52.6308H535.575V41.3496L547.813 34.9608V52.6308H565.268V62.9621H547.813V99.2046C547.813 101.58 548.904 102.767 551.157 102.767H565.268V113.098H547.196H547.173Z"
       fill="white"
       id="path1527" />
    <text
       xml:space="preserve"
       style="font-style:normal;font-variant:normal;font-weight:bold;font-stretch:normal;font-size:118.73px;font-family:sans-serif;-inkscape-font-specification:'sans-serif, Bold';font-variant-ligatures:normal;font-variant-caps:normal;font-variant-numeric:normal;font-variant-east-asian:normal;fill:#4368e3;fill-opacity:1;stroke-width:1.08594"
       x="1.1615202"
       y="110.40383"
       id="text1568"
       transform="scale(0.92086069,1.0859406)"><tspan
         sodipodi:role="line"
         id="tspan1566"
         x="1.1615202"
         y="110.40383"
         style="font-style:normal;font-variant:normal;font-weight:bold;font-stretch:normal;font-size:118.73px;font-family:sans-serif;-inkscape-font-specification:'sans-serif, Bold';font-variant-ligatures:normal;font-variant-caps:normal;font-variant-numeric:normal;font-variant-east-asian:normal;fill:#4368e3;fill-opacity:1;stroke-width:1.08594">$</tspan></text>
  </g>
  <defs
     id="defs1542">
    <clipPath
       id="clip0_398_48">
      <rect
         width="565"
         height="95"
         fill="white"
         transform="translate(0.244568 23.7509)"
         id="rect1539" />
    </clipPath>
  </defs>
</svg>
