<?xml version="1.0" encoding="UTF-8" standalone="no"?>
<svg
   width="800"
   height="712.457"
   viewBox="0 0 800 712.457"
   role="img"
   artist="Katerina Limpitsouni"
   source="https://undraw.co/"
   version="1.1"
   id="svg44"
   sodipodi:docname="docs_logo.svg"
   inkscape:version="1.2.2 (b0a8486541, 2022-12-01)"
   xmlns:inkscape="http://www.inkscape.org/namespaces/inkscape"
   xmlns:sodipodi="http://sodipodi.sourceforge.net/DTD/sodipodi-0.dtd"
   xmlns="http://www.w3.org/2000/svg"
   xmlns:svg="http://www.w3.org/2000/svg">
  <defs
     id="defs48" />
  <sodipodi:namedview
     id="namedview46"
     pagecolor="#ffffff"
     bordercolor="#000000"
     borderopacity="0.25"
     inkscape:showpageshadow="2"
     inkscape:pageopacity="0.0"
     inkscape:pagecheckerboard="0"
     inkscape:deskcolor="#d1d1d1"
     showgrid="false"
     inkscape:zoom="1.2253372"
     inkscape:cx="400.29799"
     inkscape:cy="356.22849"
     inkscape:window-width="1920"
     inkscape:window-height="1011"
     inkscape:window-x="1920"
     inkscape:window-y="0"
     inkscape:window-maximized="1"
     inkscape:current-layer="g4" />
  <g
     transform="translate(-503.861 -308.788)"
     id="g42">
    <g
       transform="translate(503.861 895.767)"
       id="g4" />
    <path
       d="M165.886,780.652l26.236,3.281,15.3-75.426L177.9,691.01,139.65,732.555Z"
       transform="translate(440.84 171.669)"
       fill="#ed9da0"
       id="path6" />
    <path
       d="M617.592,425.122l-63.4,56.845S431.766,509.3,462.376,471.032c17.339-21.674,15.034-54.57,9.773-79.022a205.013,205.013,0,0,0-9.773-32.511s157.433-95.061,135.572-22.906c-6.482,21.4-7.389,37.9-5.468,50.511C597.071,417.014,617.592,425.122,617.592,425.122Z"
       transform="translate(341.081 156.63)"
       fill="#ed9da0"
       id="path8" />
    <path
       d="M347.13,419.961V644.042l215.342-17.487L526.4,398.1s-50.028,42.449-94.847,47.915S347.13,419.961,347.13,419.961Z"
       transform="translate(437.767 176.008)"
       fill="#e1e7ef"
       id="path10" />
    <path
       d="M595.511,391.332l26.34,9.868s30.61,19.7,142.1,34.984c0,0,16.393,0,27.329,52.471l139.9,186.92s67.771,50.245,10.936,100.568L817,789.808s72.145-68.865-37.161-71.052l20.226-16.945s-31.7-29.556-38.255-48.1-60.1-39.348-60.1-39.348l6.561,157.4-98.489,15.28L595.6,494.153a194.51,194.51,0,0,1,2.364-41.309c2.916-17.306,1.772-41.443-2.364-54.431-.786-2.474.338-5.112-.084-7.081C595.471,391.036,596.154,391.632,595.511,391.332Z"
       transform="translate(339.039 155.42)"
       fill="#3f3d56"
       id="path12" />
    <path
       d="M469.057,401.34,330.234,437.457s-20.768-13.113-45.91,89.652l-88.539,159.6s-51.417,50.245-12.009,92.844,88.539,21.861,88.539,21.861-44.816-69.948,33.89-87.445l29.556-37.161,133.355,15.3-3.34-192.387,3.7-22.423a222.653,222.653,0,0,0,0-73.209Z"
       transform="translate(346.337 155.271)"
       fill="#3f3d56"
       id="path14" />
    <path
       d="M238.2,489.08l-13.123,9.832L422.935,549.2V529.522Z"
       transform="translate(439.575 174.66)"
       fill="#e4e6ed"
       id="path16" />
    <path
       d="M623.765,485.75l13.113,9.842L425.91,549.147V529.473Z"
       transform="translate(436.6 174.709)"
       fill="#e4e6ed"
       id="path18" />
    <path
       d="M212.88,489.08l183.639,42.629,13.113,266.72L248.948,748.145Z"
       transform="translate(439.755 174.66)"
       fill="#4368E3"
       id="path20" />
    <path
       d="M645.988,489.08,450.32,533.9l10.926,267.813,181.462-55.752Z"
       transform="translate(436.238 174.66)"
       fill="#4368E3"
       id="path22" />
    <path
       d="M489.1,553.35s32.058,19.7,65.761,0l6.561,272.188H508.784Z"
       transform="translate(340.612 153.019)"
       fill="#4368E3"
       id="path24" />
    <path
       d="M489.1,553.35s32.058,19.7,65.761,0l6.561,272.188H508.784Z"
       transform="translate(340.612 153.019)"
       opacity="0.1"
       id="path26" />
    <path
       d="M339.32,506.75V514.4l180.358,36.068S427.859,516.582,339.32,506.75Z"
       transform="translate(342.831 153.709)"
       fill="#d6d6e3"
       id="path28" />
    <path
       d="M716.965,502.31v7.655L522.39,550.407S628.406,512.152,716.965,502.31Z"
       transform="translate(340.119 153.775)"
       fill="#d6d6e3"
       id="path30" />
    <path
       d="M778.959,723.045l-5.7,1.537S736.1,692.071,688.745,741.33,704.508,814.7,704.508,814.7s65.022,2.788,85.445-9.29a89.882,89.882,0,0,1,28.462-11.024,29.083,29.083,0,0,0,15.94-8.995h0a38.038,38.038,0,0,0,9.517-31.368h0a38.038,38.038,0,0,0-27.979-31.152h0A72.076,72.076,0,0,0,778.959,723.045Z"
       transform="translate(337.916 150.639)"
       fill="#ed9da0"
       id="path32" />
    <path
       d="M291.29,728.484s43.723-39.348,97.287,26.236-41.545,66.707-41.545,66.707-51.417,11.99-71.052-30.639S291.29,728.484,291.29,728.484Z"
       transform="translate(343.858 150.598)"
       fill="#ed9da0"
       id="path34" />
    <path
       d="M786.39,720.3s50.826,14.837,39.93,73.485l30.718-3.35,6.483-29.822-13.113-41.536-25.142-9.852Z"
       transform="translate(336.209 150.71)"
       fill="#3f3d56"
       id="path36" />
    <ellipse
       cx="99.014"
       cy="99.014"
       rx="99.014"
       ry="99.014"
       transform="translate(769.213 358.583)"
       fill="#ed9da0"
       id="ellipse38" />
    <path
       d="M580.532,229.85s25.9-49.507-31.077-54.008c0,0-48.571-44.06-98.078-8.055,0,0-27,0-41.771,30.558,0,0-21.238-8.055-25.906,13.5,0,0-15.541,45.006,0,85.512s20.7,45.006,20.7,45.006-25.537-84.922,36.622-89.423,131.716-43.346,136.9,6.161S590.9,320.809,590.9,320.809,640.1,250.1,580.532,229.85Z"
       transform="translate(374.404 155.151)"
       fill="#090814"
       id="path40" />
  </g>
</svg>
